#Comment line ignore any data following # character 
#Hierarchical Translation and Rotation (.htr) file 
[Header]	
#Header keywords are followed by a single value 
FileType HTR		#Single word string
DataType HTRS		#Translation followed by rotation and scale data
FileVersion 1		#integer
NumSegments 64		#integer
NumFrames 3		#integer
DataFrameRate 30		#integer, data frame rate in this file
EulerRotationOrder ZYX
CalibrationUnits mm
RotationUnits Degrees
GlobalAxisofGravity Y
BoneLengthAxis Y
ScaleFactor 1.00
[SegmentNames&Hierarchy]
#CHILD	PARENT
Pinger_Root GLOBAL
Pelvis Pinger_Root
L_Hip Pelvis
R_Hip Pelvis
Rear_Leg01 Pelvis
Spine1 Pelvis
L_Leg01 L_Hip
L_Leg02 L_Leg01
L_Leg03 L_Leg02
L_Foot L_Leg03
L_Toe1_01 L_Foot
L_Toe2_01 L_Foot
L_Toe3_01 L_Foot
planeAlignerLeft L_Foot
L_Toe1_02 L_Toe1_01
L_Toe1_03 L_Toe1_02
L_Toe2_02 L_Toe2_01
L_Toe2_03 L_Toe2_02
L_Toe3_02 L_Toe3_01
L_Toe3_03 L_Toe3_02
planeLockWeightLeft planeAlignerLeft
R_Leg01 R_Hip
R_Leg02 R_Leg01
R_Leg03 R_Leg02
R_Foot R_Leg03
planeAlignerRight R_Foot
R_Toe1_01 R_Foot
R_Toe2_01 R_Foot
R_Toe3_01 R_Foot
planeLockWeightRight planeAlignerRight
R_Toe1_02 R_Toe1_01
R_Toe1_03 R_Toe1_02
R_Toe2_02 R_Toe2_01
R_Toe2_03 R_Toe2_02
R_Toe3_02 R_Toe3_01
R_Toe3_03 R_Toe3_02
Rear_Leg02 Rear_Leg01
Rear_Leg03 Rear_Leg02
Rear_Leg04 Rear_Leg03
Rear_Foot Rear_Leg04
planeAlignerCenter Rear_Foot
Rear_Toe1_01 Rear_Foot
Rear_Toe2_01 Rear_Foot
Rear_Toe3_01 Rear_Foot
planeLockWeightCenter planeAlignerCenter
Rear_Toe1_02 Rear_Toe1_01
Rear_Toe1_03 Rear_Toe1_02
Rear_Toe2_02 Rear_Toe2_01
Rear_Toe2_03 Rear_Toe2_02
Rear_Toe3_02 Rear_Toe3_01
Rear_Toe3_03 Rear_Toe3_02
Back_Bone Spine1
Head Spine1
Motor_Bone Back_Bone
Ping_Mechanism Back_Bone
BN_LookIK Head
bottomMouth Head
L_Mouth01 Head
L_mouthFront Head
mouthGun Head
R_Mouth01 Head
R_mouthFront Head
TopMouth Head
weapon_bone Head
[BasePosition]
#SegmentName Tx, Ty, Tz, Rx, Ry, Rz, BoneLength
Pinger_Root 0.000000 0.000000 0.000000 -90.000000 0.000000 0.000000 10.000000 
Pelvis 0.000000 0.000000 0.000000 0.000000 0.000000 0.000000 10.000000 
L_Hip 0.000000 0.000000 0.000000 0.000000 0.000000 0.000000 10.000000 
R_Hip 0.000000 0.000000 0.000000 0.000000 0.000000 0.000000 10.000000 
Rear_Leg01 0.000000 0.000000 0.000000 0.000000 0.000000 0.000000 10.000000 
Spine1 0.000000 0.000000 0.000000 0.000000 0.000000 0.000000 10.000000 
L_Leg01 0.000000 0.000000 0.000000 0.000000 0.000000 0.000000 10.000000 
L_Leg02 0.000000 0.000000 0.000000 0.000000 0.000000 0.000000 10.000000 
L_Leg03 0.000000 0.000000 0.000000 0.000000 0.000000 0.000000 10.000000 
L_Foot 0.000000 0.000000 0.000000 0.000000 0.000000 0.000000 10.000000 
L_Toe1_01 0.000000 0.000000 0.000000 0.000000 0.000000 0.000000 10.000000 
L_Toe2_01 0.000000 0.000000 0.000000 0.000000 0.000000 0.000000 10.000000 
L_Toe3_01 0.000000 0.000000 0.000000 0.000000 0.000000 0.000000 10.000000 
planeAlignerLeft 0.000000 0.000000 0.000000 0.000000 0.000000 0.000000 10.000000 
L_Toe1_02 0.000000 0.000000 0.000000 0.000000 0.000000 0.000000 10.000000 
L_Toe1_03 0.000000 0.000000 0.000000 0.000000 0.000000 0.000000 10.000000 
L_Toe2_02 0.000000 0.000000 0.000000 0.000000 0.000000 0.000000 10.000000 
L_Toe2_03 0.000000 0.000000 0.000000 0.000000 0.000000 0.000000 10.000000 
L_Toe3_02 0.000000 0.000000 0.000000 0.000000 0.000000 0.000000 10.000000 
L_Toe3_03 0.000000 0.000000 0.000000 0.000000 0.000000 0.000000 10.000000 
planeLockWeightLeft 0.000000 0.000000 0.000000 0.000000 0.000000 0.000000 10.000000 
R_Leg01 0.000000 0.000000 0.000000 0.000000 0.000000 0.000000 10.000000 
R_Leg02 0.000000 0.000000 0.000000 0.000000 0.000000 0.000000 10.000000 
R_Leg03 0.000000 0.000000 0.000000 0.000000 0.000000 0.000000 10.000000 
R_Foot 0.000000 0.000000 0.000000 0.000000 0.000000 0.000000 10.000000 
planeAlignerRight 0.000000 0.000000 0.000000 0.000000 0.000000 0.000000 10.000000 
R_Toe1_01 0.000000 0.000000 0.000000 0.000000 0.000000 0.000000 10.000000 
R_Toe2_01 0.000000 0.000000 0.000000 0.000000 0.000000 0.000000 10.000000 
R_Toe3_01 0.000000 0.000000 0.000000 0.000000 0.000000 0.000000 10.000000 
planeLockWeightRight 0.000000 0.000000 0.000000 0.000000 0.000000 0.000000 10.000000 
R_Toe1_02 0.000000 0.000000 0.000000 0.000000 0.000000 0.000000 10.000000 
R_Toe1_03 0.000000 0.000000 0.000000 0.000000 0.000000 0.000000 10.000000 
R_Toe2_02 0.000000 0.000000 0.000000 0.000000 0.000000 0.000000 10.000000 
R_Toe2_03 0.000000 0.000000 0.000000 0.000000 0.000000 0.000000 10.000000 
R_Toe3_02 0.000000 0.000000 0.000000 0.000000 0.000000 0.000000 10.000000 
R_Toe3_03 0.000000 0.000000 0.000000 0.000000 0.000000 0.000000 10.000000 
Rear_Leg02 0.000000 0.000000 0.000000 0.000000 0.000000 0.000000 10.000000 
Rear_Leg03 0.000000 0.000000 0.000000 0.000000 0.000000 0.000000 10.000000 
Rear_Leg04 0.000000 0.000000 0.000000 0.000000 0.000000 0.000000 10.000000 
Rear_Foot 0.000000 0.000000 0.000000 0.000000 0.000000 0.000000 10.000000 
planeAlignerCenter 0.000000 0.000000 0.000000 0.000000 0.000000 0.000000 10.000000 
Rear_Toe1_01 0.000000 0.000000 0.000000 0.000000 0.000000 0.000000 10.000000 
Rear_Toe2_01 0.000000 0.000000 0.000000 0.000000 0.000000 0.000000 10.000000 
Rear_Toe3_01 0.000000 0.000000 0.000000 0.000000 0.000000 0.000000 10.000000 
planeLockWeightCenter 0.000000 0.000000 0.000000 0.000000 0.000000 0.000000 10.000000 
Rear_Toe1_02 0.000000 0.000000 0.000000 0.000000 0.000000 0.000000 10.000000 
Rear_Toe1_03 0.000000 0.000000 0.000000 0.000000 0.000000 0.000000 10.000000 
Rear_Toe2_02 0.000000 0.000000 0.000000 0.000000 0.000000 0.000000 10.000000 
Rear_Toe2_03 0.000000 0.000000 0.000000 0.000000 0.000000 0.000000 10.000000 
Rear_Toe3_02 0.000000 0.000000 0.000000 0.000000 0.000000 0.000000 10.000000 
Rear_Toe3_03 0.000000 0.000000 0.000000 0.000000 0.000000 0.000000 10.000000 
Back_Bone 0.000000 0.000000 0.000000 0.000000 0.000000 0.000000 10.000000 
Head 0.000000 0.000000 0.000000 0.000000 0.000000 0.000000 10.000000 
Motor_Bone 0.000000 0.000000 0.000000 0.000000 0.000000 0.000000 10.000000 
Ping_Mechanism 0.000000 0.000000 0.000000 0.000000 0.000000 0.000000 10.000000 
BN_LookIK 0.000000 0.000000 0.000000 0.000000 0.000000 0.000000 10.000000 
bottomMouth 0.000000 0.000000 0.000000 0.000000 0.000000 0.000000 10.000000 
L_Mouth01 0.000000 0.000000 0.000000 0.000000 0.000000 0.000000 10.000000 
L_mouthFront 0.000000 0.000000 0.000000 0.000000 0.000000 0.000000 10.000000 
mouthGun 0.000000 0.000000 0.000000 0.000000 0.000000 0.000000 10.000000 
R_Mouth01 0.000000 0.000000 0.000000 0.000000 0.000000 0.000000 10.000000 
R_mouthFront 0.000000 0.000000 0.000000 0.000000 0.000000 0.000000 10.000000 
TopMouth 0.000000 0.000000 0.000000 0.000000 0.000000 0.000000 10.000000 
weapon_bone 0.000000 0.000000 0.000000 0.000000 0.000000 0.000000 10.000000 
#Beginning of Data. Separated by tabs
#Fr	Tx	Ty	Tz	Rx	Ry	Rz	SF
[Pinger_Root]
54 0.000000 0.000000 0.000000 -0.000075 -0.000000 -0.000020 0.000000
55 0.000000 0.000000 0.000000 -0.000075 -0.000000 -0.000020 0.000000
56 0.000000 0.000000 0.000000 -0.000075 -0.000000 -0.000020 0.000000
[Pelvis]
54 101.925575 911.352783 4377.131836 -100.635429 -86.286911 93.018333 4472.162109
55 89.437225 914.302917 4394.388672 -100.924103 -86.626633 93.306557 4489.387695
56 81.105865 915.994690 4407.003906 -101.049820 -86.742256 93.432526 4501.922852
[L_Hip]
54 5.766392 125.831482 872.656799 160.158691 -45.484905 122.312202 881.701050
55 5.766392 125.831482 872.656799 160.158691 -45.484894 122.312202 881.701050
56 5.766392 125.831482 872.656799 160.158691 -45.484905 122.312202 881.701050
[R_Hip]
54 5.765438 125.836372 -872.654907 38.087841 49.812698 125.703735 881.699829
55 5.765438 125.836372 -872.654907 38.087841 49.812687 125.703735 881.699829
56 5.765438 125.836372 -872.654907 38.087841 49.812687 125.703735 881.699829
[Rear_Leg01]
54 -192.298416 -925.602966 -0.001907 169.596008 1.573911 -158.794296 945.367432
55 -192.298416 -925.602966 -0.001907 169.645676 1.778827 -158.645660 945.367432
56 -192.298416 -925.602966 -0.001907 169.695877 1.983603 -158.496857 945.367432
[Spine1]
54 290.604584 5.007505 0.000477 7.265744 -0.619986 19.266817 290.647736
55 290.604584 5.007505 0.000477 7.265744 -0.619986 19.266817 290.647736
56 290.604584 5.007505 0.000477 7.265744 -0.619986 19.266817 290.647736
[L_Leg01]
54 761.932007 -0.002384 -0.069261 23.164875 -15.479847 -8.671624 761.932068
55 761.932007 -0.002384 -0.069261 23.310940 -15.406245 -9.351041 761.932068
56 761.932007 -0.002384 -0.069261 23.372437 -15.371928 -9.679468 761.932068
[L_Leg02]
54 1441.140503 -0.000954 -0.000715 2.678270 -0.188545 -129.691498 1441.140503
55 1441.140503 -0.000954 -0.000715 2.646589 -0.186300 -129.390778 1441.140503
56 1441.140503 -0.000954 -0.000715 2.614920 -0.183888 -129.090042 1441.140503
[L_Leg03]
54 1686.963989 -0.000715 -0.000954 -0.029922 0.014764 118.311798 1686.963989
55 1686.963989 -0.000715 -0.000954 -0.029930 0.014748 118.248413 1686.963989
56 1686.963989 -0.000715 -0.000954 -0.029939 0.014731 118.185059 1686.963989
[L_Foot]
54 3041.570068 -30.715107 11.297464 1.444020 13.026914 55.330734 3041.746094
55 3041.570068 -30.715107 11.297464 1.633550 13.055245 55.411961 3041.746094
56 3041.570068 -30.715107 11.297464 1.823135 13.083318 55.493294 3041.746094
[L_Toe1_01]
54 -188.216690 -224.732346 -21.137953 93.895615 -6.320137 -174.044632 293.899567
55 -188.216690 -224.732346 -21.137953 93.850037 -6.503291 -173.474136 293.899567
56 -188.216690 -224.732346 -21.137953 93.804436 -6.634329 -172.939972 293.899567
[L_Toe2_01]
54 200.746536 -219.926590 148.838394 -91.004822 -26.115177 -50.505409 332.896027
55 200.746536 -219.926590 148.838394 -90.722343 -26.190191 -51.124149 332.896027
56 200.746536 -219.926590 148.838394 -90.438805 -26.262453 -51.743629 332.896027
[L_Toe3_01]
54 188.832520 -219.859131 -191.078659 -99.750732 14.915140 -65.774979 347.140900
55 188.832520 -219.859131 -191.078659 -99.758476 14.596369 -66.307404 347.140900
56 188.832520 -219.859131 -191.078659 -99.763123 14.277556 -66.838959 347.140900
[planeAlignerLeft]
54 0.812531 -811.448792 -0.314951 0.000000 -90.000000 -90.001900 811.449280
55 0.812531 -811.448792 -0.314951 0.000000 -90.000000 -90.001900 811.449280
56 0.812531 -811.448792 -0.314951 0.000000 -90.000000 -90.001900 811.449280
[L_Toe1_02]
54 413.761139 0.000477 0.000000 0.000203 -25.410625 -0.000182 413.761139
55 413.761139 0.000477 0.000000 0.000203 -25.410625 -0.000182 413.761139
56 413.761139 0.000477 0.000000 0.000203 -25.410625 -0.000182 413.761139
[L_Toe1_03]
54 464.317322 0.000358 -0.000089 0.004037 56.197342 0.004037 464.317322
55 464.317322 0.000358 -0.000089 0.003947 55.405376 0.003947 464.317322
56 464.317322 0.000358 -0.000089 0.003862 54.613461 0.003862 464.317322
[L_Toe2_02]
54 342.235809 -0.000477 0.000238 0.001186 -73.348709 0.001186 342.235809
55 342.235809 -0.000477 0.000238 0.001186 -73.124298 0.001186 342.235809
56 342.235809 -0.000477 0.000238 0.001187 -72.899872 0.001187 342.235809
[L_Toe2_03]
54 420.210846 -0.000715 0.000000 0.015707 87.930389 0.017456 420.210846
55 420.210846 -0.000715 0.000000 0.029861 87.213715 0.030736 420.210846
56 420.210846 -0.000715 0.000000 0.038404 86.497421 0.038404 420.210846
[L_Toe3_02]
54 329.270111 0.000954 0.000000 0.001177 -81.004333 0.001177 329.270111
55 329.270111 0.000954 0.000000 0.001177 -80.899551 0.001177 329.270111
56 329.270111 0.000954 0.000000 0.001177 -80.794716 0.001177 329.270111
[L_Toe3_03]
54 439.137451 -0.001907 0.000954 -179.996872 76.512054 -179.993347 439.137451
55 439.137451 -0.001907 0.000954 -179.996658 77.048470 -179.993149 439.137451
56 439.137451 -0.001907 0.000954 -179.996445 77.587891 -179.992935 439.137451
[planeLockWeightLeft]
54 -0.000954 0.000238 -0.000305 -0.011826 -0.004376 0.005620 0.001029
55 -0.000954 0.000238 -0.000305 -0.011826 -0.004376 0.005620 0.001029
56 -0.000954 0.000238 -0.000305 -0.011826 -0.004376 0.005620 0.001029
[R_Leg01]
54 761.455627 -0.001907 -0.000358 120.150841 -9.524018 34.679817 761.455688
55 761.455627 -0.001907 -0.000358 119.944405 -8.648607 35.196140 761.455688
56 761.455627 -0.001907 -0.000358 119.820168 -8.056325 35.558273 761.455688
[R_Leg02]
54 1441.140625 0.000000 -0.000238 -1.496980 -0.267117 -123.261543 1441.140625
55 1441.140625 0.000000 -0.000238 -1.440418 -0.240539 -121.699600 1441.140625
56 1441.140625 0.000000 -0.000238 -1.398530 -0.228896 -120.581406 1441.140625
[R_Leg03]
54 1686.963989 0.000954 0.001431 0.080823 -0.044653 132.606491 1686.963989
55 1686.963989 0.000954 0.001431 0.080005 -0.042055 132.128510 1686.963989
56 1686.963989 0.000954 0.001431 0.080086 -0.041901 131.908173 1686.963989
[R_Foot]
54 3041.560059 -30.531288 -11.204481 -0.580302 -24.620543 56.608269 3041.734131
55 3041.560059 -30.531288 -11.204481 -0.548532 -24.639284 56.280552 3041.734131
56 3041.560059 -30.531288 -11.204481 -0.516639 -24.657862 55.952763 3041.734131
[planeAlignerRight]
54 -0.635147 -812.270569 -0.364304 0.000000 -89.960434 -90.005180 812.270874
55 -0.635147 -812.270569 -0.364304 0.000000 -89.960434 -90.005180 812.270874
56 -0.635147 -812.270569 -0.364304 0.000000 -89.960434 -90.005180 812.270874
[R_Toe1_01]
54 -188.383347 -224.864899 21.052242 76.698273 0.307532 -173.015015 294.101532
55 -188.383347 -224.864899 21.052242 76.714439 0.127980 -172.943039 294.101532
56 -188.383347 -224.864899 21.052242 76.730392 -0.051594 -172.871124 294.101532
[R_Toe2_01]
54 200.637817 -220.002121 -148.787384 -91.965729 33.629028 -59.134937 332.857574
55 200.637817 -220.002121 -148.787384 -91.911545 33.447975 -59.145840 332.857574
56 200.637817 -220.002121 -148.787384 -91.857422 33.266922 -59.156898 332.857574
[R_Toe3_01]
54 188.606735 -220.092957 191.126343 -73.500298 -8.042382 -73.260315 347.192566
55 188.606735 -220.092957 191.126343 -73.442421 -8.128664 -73.367699 347.192566
56 188.606735 -220.092957 191.126343 -73.384392 -8.214848 -73.475204 347.192566
[planeLockWeightRight]
54 -0.000477 0.000000 0.000000 -0.011823 -0.004379 -0.000027 0.000477
55 -0.000477 0.000000 0.000000 -0.011823 -0.004379 -0.000027 0.000477
56 -0.000477 0.000000 0.000000 -0.011823 -0.004379 -0.000027 0.000477
[R_Toe1_02]
54 413.762085 0.000477 -0.000119 0.001393 -24.813425 0.001393 413.762085
55 413.762085 0.000477 -0.000119 0.001393 -24.794182 0.001393 413.762085
56 413.762085 0.000477 -0.000119 0.001393 -24.774939 0.001393 413.762085
[R_Toe1_03]
54 464.317810 0.000000 0.001088 0.006493 69.171455 0.006493 464.317810
55 464.317810 0.000000 0.001088 0.006545 69.340576 0.006545 464.317810
56 464.317810 0.000000 0.001088 0.006556 69.376701 0.006556 464.317810
[R_Toe2_02]
54 342.234741 -0.000954 0.000238 0.001197 -67.157646 0.001197 342.234741
55 342.234741 -0.000954 0.000238 0.001197 -67.161049 0.001197 342.234741
56 342.234741 -0.000954 0.000238 0.001197 -67.164436 0.001197 342.234741
[R_Toe2_03]
54 420.210846 0.000715 -0.000268 0.008150 73.440384 0.008150 420.210846
55 420.210846 0.000715 -0.000268 0.008159 73.459435 0.008159 420.210846
56 420.210846 0.000715 -0.000268 0.008168 73.478554 0.008168 420.210846
[R_Toe3_02]
54 329.270355 -0.000477 -0.000954 0.001183 -75.316132 0.001183 329.270355
55 329.270355 -0.000477 -0.000954 0.001184 -75.149391 0.001184 329.270355
56 329.270355 -0.000477 -0.000954 0.001184 -74.982658 0.001184 329.270355
[R_Toe3_03]
54 439.137939 0.000238 0.001431 -0.015872 85.335152 -0.012373 439.137939
55 439.137939 0.000238 0.001431 -0.014370 84.779366 -0.010870 439.137939
56 439.137939 0.000238 0.001431 -0.013157 84.223579 -0.009656 439.137939
[Rear_Leg02]
54 1162.777710 -0.029802 0.005960 0.757312 -2.886466 -126.250641 1162.777710
55 1162.777710 -0.029802 0.005960 0.731376 -2.892154 -125.705124 1162.777710
56 1162.777710 -0.029802 0.005960 0.705388 -2.897595 -125.159615 1162.777710
[Rear_Leg03]
54 607.192505 -0.013351 -0.073195 0.010612 -0.004851 65.488304 607.192505
55 607.192505 -0.013351 -0.073195 0.010622 -0.004829 65.247375 607.192505
56 607.192505 -0.013351 -0.073195 0.010633 -0.004806 65.006462 607.192505
[Rear_Leg04]
54 995.874512 -0.020504 -0.011921 -0.043286 -0.018662 60.419239 995.874573
55 995.874512 -0.020504 -0.011921 -0.042402 -0.017373 60.053982 995.874573
56 995.874512 -0.020504 -0.011921 -0.041526 -0.016078 59.688717 995.874573
[Rear_Foot]
54 3096.176270 -0.067472 -0.041425 -147.953552 85.299049 44.999916 3096.176270
55 3096.176270 -0.067472 -0.041425 -146.620605 85.463562 46.322544 3096.176270
56 3096.176270 -0.067472 -0.041425 -145.188507 85.625565 47.744488 3096.176270
[planeAlignerCenter]
54 0.350077 0.966311 -838.790894 0.000009 0.000003 -179.999985 838.791565
55 0.350077 0.966311 -838.790894 0.000009 0.000003 -179.999985 838.791565
56 0.350077 0.966311 -838.790894 0.000009 0.000003 -179.999985 838.791565
[Rear_Toe1_01]
54 0.653352 83.966492 -371.173737 0.288088 41.914127 90.413162 380.553192
55 0.653352 83.966492 -371.173737 0.288091 41.914127 90.413170 380.553192
56 0.653352 83.966492 -371.173737 0.288091 41.914127 90.413170 380.553192
[Rear_Toe2_01]
54 178.200760 -294.826019 -362.060547 -7.196267 34.406261 -66.271294 499.765686
55 178.200760 -294.826019 -362.060547 -7.196267 34.406261 -66.271294 499.765686
56 178.200760 -294.826019 -362.060547 -7.196267 34.406261 -66.271294 499.765686
[Rear_Toe3_01]
54 -153.359680 -308.780914 -362.060852 3.289418 33.518005 -112.540970 499.952881
55 -153.359680 -308.780914 -362.060852 3.289418 33.518005 -112.540970 499.952881
56 -153.359680 -308.780914 -362.060852 3.289418 33.518005 -112.540970 499.952881
[planeLockWeightCenter]
54 -0.000062 0.000238 0.000000 -0.011814 -0.004373 -0.000015 0.000246
55 -0.000062 0.000238 0.000000 -0.011814 -0.004373 -0.000015 0.000246
56 -0.000062 0.000238 0.000000 -0.011814 -0.004373 -0.000015 0.000246
[Rear_Toe1_02]
54 379.707825 0.194073 0.000477 -0.000242 -31.676744 0.006934 379.707855
55 379.707825 0.194073 0.000477 -0.000242 -31.676744 0.006934 379.707855
56 379.707825 0.194073 0.000477 -0.000242 -31.676744 0.006934 379.707855
[Rear_Toe1_03]
54 500.129700 0.165701 0.000119 -0.000103 51.902481 0.007295 500.129761
55 500.129700 0.165701 0.000119 -0.000103 51.902485 0.007295 500.129761
56 500.129700 0.165701 0.000119 -0.000103 51.902481 0.007295 500.129761
[Rear_Toe2_02]
54 340.494507 0.000238 -0.000954 0.001192 -69.854523 0.001192 340.494507
55 340.494507 0.000238 -0.000954 0.001192 -69.854523 0.001192 340.494507
56 340.494507 0.000238 -0.000954 0.001192 -69.854523 0.001192 340.494507
[Rear_Toe2_03]
54 433.103577 0.000000 0.000238 0.006696 69.810326 0.006696 433.103546
55 433.103577 0.000000 0.000238 0.006696 69.810326 0.006696 433.103546
56 433.103577 0.000000 0.000238 0.006696 69.810326 0.006696 433.103546
[Rear_Toe3_02]
54 340.494141 -0.000358 -0.000477 0.008288 -67.274704 -0.009460 340.494171
55 340.494141 -0.000358 -0.000477 0.008288 -67.274704 -0.009460 340.494171
56 340.494141 -0.000358 -0.000477 0.008288 -67.274704 -0.009460 340.494171
[Rear_Toe3_03]
54 433.103577 0.001431 -0.000238 -0.000972 65.959007 -0.004547 433.103546
55 433.103577 0.001431 -0.000238 -0.000972 65.958984 -0.004547 433.103546
56 433.103577 0.001431 -0.000238 -0.000972 65.958984 -0.004547 433.103546
[Back_Bone]
54 1312.175781 -701.934692 0.000954 0.000023 -0.000007 -85.606667 1488.125488
55 1312.175781 -701.934692 0.000954 0.000023 -0.000007 -85.606667 1488.125488
56 1312.175781 -701.934692 0.000954 0.000023 -0.000007 -85.606667 1488.125488
[Head]
54 1406.159424 809.709290 0.001431 -0.007125 -1.485639 7.771648 1622.625488
55 1406.159424 809.709290 0.001431 -0.006669 -1.485050 7.771435 1622.625488
56 1406.159424 809.709290 0.001431 -0.006213 -1.484460 7.771223 1622.625488
[Motor_Bone]
54 1158.364380 -417.834747 0.000477 -0.000105 0.000046 -105.985291 1231.419434
55 1158.364380 -417.834747 0.000477 -0.000105 0.000046 -105.985291 1231.419434
56 1158.364380 -417.834747 0.000477 -0.000105 0.000046 -105.985291 1231.419434
[Ping_Mechanism]
54 1215.237793 -433.297150 0.000954 0.000103 -0.000053 82.120995 1290.174072
55 1215.237793 -433.297150 0.000954 0.000103 -0.000053 82.120995 1290.174072
56 1215.237793 -433.297150 0.000954 0.000103 -0.000053 82.120995 1290.174072
[BN_LookIK]
54 193.241119 1380.371704 -0.002861 0.000000 89.965736 -31.038179 1393.832153
55 193.241119 1380.371704 -0.002861 0.000000 89.965736 -31.038179 1393.832153
56 193.241119 1380.371704 -0.002861 0.000000 89.965736 -31.038179 1393.832153
[bottomMouth]
54 -435.092926 615.759399 -0.000954 -0.000022 0.000016 73.527184 753.966492
55 -435.092926 615.759399 -0.000954 -0.000022 0.000016 73.527184 753.966492
56 -435.092926 615.759399 -0.000954 -0.000022 0.000016 73.527184 753.966492
[L_Mouth01]
54 554.440979 7.658243 838.222046 150.204178 23.759130 109.605339 1005.027161
55 554.440979 7.658243 838.222046 150.204178 23.759130 109.605339 1005.027161
56 554.440979 7.658243 838.222046 150.204178 23.759130 109.605339 1005.027161
[L_mouthFront]
54 551.629089 934.514771 339.150421 0.000081 2.804060 79.119301 1136.941284
55 551.629089 934.514771 339.150421 0.000081 2.804060 79.119301 1136.941284
56 551.629089 934.514771 339.150421 0.000081 2.804060 79.119301 1136.941284
[mouthGun]
54 55.332661 1627.420898 0.000000 0.000023 0.000009 -11.038128 1628.361328
55 55.332661 1627.420898 0.000000 0.000023 0.000009 -11.038128 1628.361328
56 55.332661 1627.420898 0.000000 0.000023 0.000009 -11.038128 1628.361328
[R_Mouth01]
54 554.442383 7.659197 -838.223938 29.795891 -23.759109 109.605331 1005.029541
55 554.442383 7.659197 -838.223938 29.795891 -23.759109 109.605331 1005.029541
56 554.442383 7.659197 -838.223938 29.795891 -23.759109 109.605331 1005.029541
[R_mouthFront]
54 551.629089 934.514282 -339.151367 0.000029 -2.803930 79.119133 1136.941162
55 551.629089 934.514282 -339.151367 0.000029 -2.803930 79.119133 1136.941162
56 551.629089 934.514282 -339.151367 0.000029 -2.803930 79.119133 1136.941162
[TopMouth]
54 461.269867 -56.106091 -0.008583 -0.000059 -0.000268 92.025169 464.669525
55 461.269867 -56.106091 -0.008583 -0.000059 -0.000268 92.025169 464.669525
56 461.269867 -56.106091 -0.008583 -0.000059 -0.000268 92.025169 464.669525
[weapon_bone]
54 -987.239868 1448.372803 0.001431 0.000000 89.965736 -31.038221 1752.833740
55 -987.239868 1448.372803 0.001431 0.000000 89.965736 -31.038221 1752.833740
56 -987.239868 1448.372803 0.001431 0.000000 89.965736 -31.038221 1752.833740
